<svg height="512pt" viewBox="-26 0 512 512" width="512pt" xmlns="http://www.w3.org/2000/svg"><g fill-rule="evenodd"><path d="m117.777344 99.375c-12.339844 0-22.433594-9.867188-22.433594-21.929688v-7.027343h-69.34375c-8.800781 0-16 7.199219-16 16v399.582031c0 8.800781 7.199219 16 16 16h328c8.800781 0 16-7.199219 16-16v-399.582031c0-8.800781-7.199219-16-16-16h-69.34375v7.027343c0 12.0625-10.09375 21.929688-22.433594 21.929688zm-70.09375 35.429688h284.636718c1.777344 0 3.226563 1.421874 3.226563 3.15625v327.195312c0 1.738281-1.457031 3.15625-3.226563 3.15625h-284.636718c-1.773438 0-3.230469-1.417969-3.230469-3.15625v-327.195312c0-1.734376 1.457031-3.15625 3.230469-3.15625zm0 0" fill="#aa836d"/><path d="m262.222656 99.375h-144.445312c-12.339844 0-22.429688-9.867188-22.429688-21.929688v-14.910156c0-12.0625 10.089844-21.933594 22.429688-21.933594h30.527344c5.242187-17.675781 21.925781-30.601562 41.695312-30.601562 19.773438 0 36.453125 12.925781 41.699219 30.601562h30.523437c12.339844 0 22.433594 9.871094 22.433594 21.933594v14.910156c0 12.0625-10.09375 21.929688-22.433594 21.929688zm0 0" fill="#00c9af"/><path d="m47.683594 134.804688h284.636718c1.773438 0 3.226563 1.421874 3.226563 3.15625v327.195312c0 1.738281-1.457031 3.15625-3.226563 3.15625h-284.636718c-1.773438 0-3.230469-1.417969-3.230469-3.15625v-327.195312c0-1.734376 1.457031-3.15625 3.230469-3.15625zm0 0" fill="#fff"/><path d="m410 134.804688h40v233.507812h-40zm0 0" fill="#808080"/><path d="m450 368.3125h-40v60c0 11.003906 9 20 20 20s20-8.996094 20-20zm0 0" fill="#b3b3b3"/></g><path d="m190 44.6875c-5.523438 0-10 4.476562-10 10v.230469c0 5.519531 4.476562 10 10 10s10-4.480469 10-10v-.230469c0-5.523438-4.476562-10-10-10zm0 0"/><path d="m34.453125 465.15625c0 7.253906 5.933594 13.15625 13.230469 13.15625h284.636718c7.292969 0 13.230469-5.902344 13.230469-13.15625v-327.195312c0-7.253907-5.9375-13.15625-13.230469-13.15625h-284.636718c-7.296875 0-13.230469 5.902343-13.230469 13.15625zm20-320.351562h271.09375v313.511718h-271.09375zm0 0"/><path d="m90.71875 241.960938c1.953125 1.953124 4.511719 2.929687 7.070312 2.929687 2.558594 0 5.117188-.976563 7.070313-2.929687l26.667969-26.664063c3.90625-3.90625 3.90625-10.238281 0-14.144531s-10.238282-3.90625-14.144532 0l-19.59375 19.59375-6.261718-6.261719c-3.90625-3.902344-10.238282-3.902344-14.144532 0-3.902343 3.90625-3.902343 10.238281 0 14.144531zm0 0"/><path d="m170.503906 231.558594h114.152344c5.523438 0 10-4.480469 10-10 0-5.523438-4.476562-10-10-10h-114.152344c-5.523437 0-10 4.476562-10 10 0 5.519531 4.476563 10 10 10zm0 0"/><path d="m170.503906 311.558594h114.152344c5.523438 0 10-4.476563 10-10 0-5.519532-4.476562-10-10-10h-114.152344c-5.523437 0-10 4.480468-10 10 0 5.523437 4.476563 10 10 10zm0 0"/><path d="m294.65625 381.5625c0-5.523438-4.476562-10-10-10h-114.152344c-5.523437 0-10 4.476562-10 10s4.476563 10 10 10h114.152344c5.523438 0 10-4.476562 10-10zm0 0"/><path d="m305.546875 428.3125h-41.035156c-5.523438 0-10 4.476562-10 10 0 5.519531 4.476562 10 10 10h41.035156c5.523437 0 10-4.480469 10-10 0-5.523438-4.476563-10-10-10zm0 0"/><path d="m235.78125 428.3125h-.234375c-5.523437 0-10 4.476562-10 10s4.476563 10 10 10h.234375c5.523438 0 10-4.476562 10-10s-4.476562-10-10-10zm0 0"/><path d="m354 60.417969h-59.425781c-1.109375-16.621094-15.191407-29.8125-32.351563-29.8125h-23.660156c-8.59375-18.339844-27.585938-30.605469-48.5625-30.605469s-39.96875 12.265625-48.5625 30.605469h-23.660156c-17.882813 0-32.429688 14.324219-32.429688 31.929687v14.910156c0 17.605469 14.546875 31.929688 32.429688 31.929688h144.449218c16.863282 0 30.753907-12.738281 32.285157-28.953125h59.488281c3.253906 0 6 2.746094 6 6v399.578125c0 3.253906-2.746094 6-6 6h-328c-3.253906 0-6-2.746094-6-6v-399.582031c0-3.25 2.746094-6 6-6 5.523438 0 10-4.476563 10-10 0-5.519531-4.476562-10-10-10-14.335938 0-26 11.664062-26 26v399.582031c0 14.335938 11.664062 26 26 26h328c14.335938 0 26-11.664062 26-26v-399.582031c0-14.335938-11.664062-26-26-26zm-79.34375 17.023437c0 6.582032-5.578125 11.933594-12.433594 11.933594h-144.445312c-6.855469 0-12.429688-5.351562-12.429688-11.933594v-14.90625c0-6.582031 5.574219-11.933594 12.429688-11.933594h30.527344c4.425781 0 8.328124-2.910156 9.585937-7.15625 4.09375-13.804687 17.300781-23.445312 32.109375-23.445312 14.8125 0 28.015625 9.640625 32.113281 23.445312 1.257813 4.246094 5.160157 7.15625 9.585938 7.15625h30.523437c6.855469 0 12.433594 5.351563 12.433594 11.933594zm0 0"/><path d="m54.730469 80.417969h.269531c5.523438 0 10-4.476563 10-10 0-5.519531-4.476562-10-10-10h-.269531c-5.523438 0-10 4.480469-10 10 0 5.523437 4.476562 10 10 10zm0 0"/><path d="m104.453125 271.558594c-16.539063 0-30 13.457031-30 30 0 16.542968 13.460937 30 30 30 16.542969 0 30-13.457032 30-30 .003906-16.542969-13.457031-30-30-30zm0 40c-5.511719 0-10-4.484375-10-10 0-5.511719 4.488281-10 10-10 5.515625 0 10 4.488281 10 10 .003906 5.515625-4.484375 10-10 10zm0 0"/><path d="m104.453125 351.5625c-16.539063 0-30 13.457031-30 30s13.460937 30 30 30c16.542969 0 30-13.457031 30-30s-13.457031-30-30-30zm0 40c-5.511719 0-10-4.488281-10-10 0-5.515625 4.488281-10 10-10 5.515625 0 10 4.484375 10 10 0 5.511719-4.484375 10-10 10zm0 0"/><path d="m450 124.804688h-40c-5.523438 0-10 4.476562-10 10v293.511718c0 13.035156 8.359375 24.152344 20 28.277344v11.722656c0 5.519532 4.476562 10 10 10s10-4.480468 10-10v-11.722656c11.640625-4.125 20-15.242188 20-28.277344v-293.511718c0-5.523438-4.476562-10-10-10zm-10 20v213.507812h-20v-213.507812zm-10 293.507812c-5.515625 0-10-4.484375-10-10v-50h20v50c0 5.515625-4.484375 10-10 10zm0 0"/></svg>